<svg xmlns="http://www.w3.org/2000/svg" viewBox="0 0 512 512" role="img" aria-label="Trading Gym bot coin">
  <defs>
    <linearGradient id="coin" x1="112" y1="80" x2="400" y2="432" gradientUnits="userSpaceOnUse">
      <stop offset="0%" stop-color="#ffe58a"/>
      <stop offset="46%" stop-color="#d89a2f"/>
      <stop offset="100%" stop-color="#8a4d1e"/>
    </linearGradient>
    <linearGradient id="robot" x1="168" y1="150" x2="344" y2="346" gradientUnits="userSpaceOnUse">
      <stop offset="0%" stop-color="#eefaff"/>
      <stop offset="100%" stop-color="#80d8ff"/>
    </linearGradient>
  </defs>

  <rect width="512" height="512" rx="64" fill="#17130d"/>
  <path
    d="M176 40h160v32h56v48h48v56h32v160h-32v56h-48v48h-56v32H176v-32h-56v-48H72v-56H40V176h32v-56h48V72h56Z"
    fill="#5a2e16"
  />
  <path
    d="M184 64h144v32h56v48h48v48h32v128h-32v48h-48v48h-56v32H184v-32h-56v-48H80v-48H48V192h32v-48h48V96h56Z"
    fill="url(#coin)"
  />
  <path
    d="M200 104h112v24h56v40h40v48h24v80h-24v48h-40v40h-56v24H200v-24h-56v-40h-40v-48H80v-80h24v-48h40v-40h56Z"
    fill="#ffd66c"
    opacity="0.72"
  />
  <path
    d="M208 128h96v24h56v40h32v40h24v48h-24v40h-32v40h-56v24h-96v-24h-56v-40h-32v-40H96v-48h24v-40h32v-40h56Z"
    fill="#9b5a22"
    opacity="0.35"
  />

  <path d="M240 122h32v46h-32Z" fill="#3c2416"/>
  <path d="M224 96h64v32h-64Z" fill="#ffd66c"/>
  <path d="M176 178h160v32h32v128h-32v32H176v-32h-32V210h32Z" fill="#3c2416"/>
  <path d="M184 162h144v32h32v136h-32v32H184v-32h-32V194h32Z" fill="url(#robot)"/>
  <path d="M184 194h144v24h32v36H152v-36h32Z" fill="#ffffff" opacity="0.38"/>

  <rect x="192" y="238" width="48" height="48" rx="8" fill="#17130d"/>
  <rect x="272" y="238" width="48" height="48" rx="8" fill="#17130d"/>
  <rect x="202" y="248" width="28" height="28" fill="#7fe8ff"/>
  <rect x="282" y="248" width="28" height="28" fill="#7fe8ff"/>
  <rect x="208" y="314" width="96" height="20" fill="#17130d"/>
  <rect x="224" y="314" width="16" height="20" fill="#7fe8ff"/>
  <rect x="272" y="314" width="16" height="20" fill="#7fe8ff"/>

  <rect x="128" y="238" width="32" height="64" fill="#3c2416"/>
  <rect x="352" y="238" width="32" height="64" fill="#3c2416"/>
  <rect x="128" y="250" width="24" height="40" fill="#80d8ff"/>
  <rect x="360" y="250" width="24" height="40" fill="#80d8ff"/>
</svg>
